<mxfile host="Electron" modified="2024-02-03T02:12:23.171Z" agent="Mozilla/5.0 (Windows NT 10.0; Win64; x64) AppleWebKit/537.36 (KHTML, like Gecko) draw.io/23.0.2 Chrome/120.0.6099.109 Electron/28.1.0 Safari/537.36" etag="uDk-02zFzx9YIOBtIKlC" version="23.0.2" type="device">
  <diagram name="ページ1" id="LE8fIzdrHe0wcv1LTvfw">
    <mxGraphModel dx="1700" dy="1004" grid="1" gridSize="10" guides="1" tooltips="1" connect="1" arrows="1" fold="1" page="1" pageScale="1" pageWidth="1600" pageHeight="1200" math="0" shadow="0">
      <root>
        <mxCell id="0" />
        <mxCell id="cFaB45KztUIKXS-_cTrr-4" value="背景" style="locked=1;" parent="0" visible="0" />
        <mxCell id="cFaB45KztUIKXS-_cTrr-5" value="" style="rounded=0;whiteSpace=wrap;html=1;strokeWidth=3;" parent="cFaB45KztUIKXS-_cTrr-4" vertex="1">
          <mxGeometry x="1" y="1" width="1595" height="1180" as="geometry" />
        </mxCell>
        <mxCell id="cFaB45KztUIKXS-_cTrr-6" value="" style="rounded=0;whiteSpace=wrap;html=1;fillColor=#B3B3B3;fontColor=#333333;strokeColor=#666666;" parent="cFaB45KztUIKXS-_cTrr-4" vertex="1">
          <mxGeometry width="1595" height="60" as="geometry" />
        </mxCell>
        <mxCell id="cFaB45KztUIKXS-_cTrr-7" value="&lt;font style=&quot;font-size: 48px;&quot;&gt;×&lt;/font&gt;" style="rounded=0;whiteSpace=wrap;html=1;" parent="cFaB45KztUIKXS-_cTrr-4" vertex="1">
          <mxGeometry x="1550" y="10" width="40" height="40" as="geometry" />
        </mxCell>
        <mxCell id="cFaB45KztUIKXS-_cTrr-8" value="" style="rounded=0;whiteSpace=wrap;html=1;" parent="cFaB45KztUIKXS-_cTrr-4" vertex="1">
          <mxGeometry x="830" y="670" width="120" height="60" as="geometry" />
        </mxCell>
        <mxCell id="cFaB45KztUIKXS-_cTrr-9" value="ウインドウ" style="locked=1;" parent="0" />
        <mxCell id="cFaB45KztUIKXS-_cTrr-10" value="" style="rounded=0;whiteSpace=wrap;html=1;strokeWidth=3;" parent="cFaB45KztUIKXS-_cTrr-9" vertex="1">
          <mxGeometry x="1" y="1" width="1595" height="1179" as="geometry" />
        </mxCell>
        <mxCell id="cFaB45KztUIKXS-_cTrr-11" value="" style="rounded=0;whiteSpace=wrap;html=1;fillColor=#B3B3B3;fontColor=#333333;strokeColor=#666666;" parent="cFaB45KztUIKXS-_cTrr-9" vertex="1">
          <mxGeometry width="1595" height="60" as="geometry" />
        </mxCell>
        <mxCell id="cFaB45KztUIKXS-_cTrr-12" value="&lt;font style=&quot;font-size: 48px;&quot;&gt;×&lt;/font&gt;" style="rounded=0;whiteSpace=wrap;html=1;" parent="cFaB45KztUIKXS-_cTrr-9" vertex="1">
          <mxGeometry x="1550" y="10" width="40" height="40" as="geometry" />
        </mxCell>
        <mxCell id="cFaB45KztUIKXS-_cTrr-14" value="名称未設定レイヤ" style="" parent="0" />
        <mxCell id="-aRjbIlAvJyihVMSlcDC-142" value="&lt;span style=&quot;font-size: 30px;&quot;&gt;Upload&lt;/span&gt;" style="rounded=1;whiteSpace=wrap;html=1;fillColor=#FFFFFF;strokeWidth=3;" parent="cFaB45KztUIKXS-_cTrr-14" vertex="1">
          <mxGeometry x="956" y="130" width="210" height="60" as="geometry" />
        </mxCell>
        <mxCell id="XEzsyxBTXAWv2MW_PeDP-0" value="&lt;span style=&quot;font-size: 30px;&quot;&gt;収支報告書XMLを指定してください&lt;/span&gt;" style="text;html=1;strokeColor=none;fillColor=none;align=left;verticalAlign=middle;whiteSpace=wrap;rounded=0;" parent="cFaB45KztUIKXS-_cTrr-14" vertex="1">
          <mxGeometry x="20" y="80" width="570" height="40" as="geometry" />
        </mxCell>
        <mxCell id="XEzsyxBTXAWv2MW_PeDP-2" value="" style="rounded=0;whiteSpace=wrap;html=1;" parent="cFaB45KztUIKXS-_cTrr-14" vertex="1">
          <mxGeometry x="50" y="130" width="830" height="60" as="geometry" />
        </mxCell>
        <mxCell id="f6X1oh0iCQBrm1oztUXl-0" value="&lt;span style=&quot;font-size: 30px;&quot;&gt;送信&lt;/span&gt;" style="rounded=1;whiteSpace=wrap;html=1;fillColor=#FFFFFF;strokeWidth=3;" parent="cFaB45KztUIKXS-_cTrr-14" vertex="1">
          <mxGeometry x="1196" y="130" width="210" height="60" as="geometry" />
        </mxCell>
        <mxCell id="f6X1oh0iCQBrm1oztUXl-1" value="&lt;span style=&quot;font-size: 30px;&quot;&gt;政治団体名&lt;/span&gt;" style="rounded=0;whiteSpace=wrap;html=1;align=right;dashed=1;dashPattern=8 8;verticalAlign=bottom;" parent="cFaB45KztUIKXS-_cTrr-14" vertex="1">
          <mxGeometry x="80" y="240" width="310" height="46" as="geometry" />
        </mxCell>
        <mxCell id="f6X1oh0iCQBrm1oztUXl-2" value="&lt;font style=&quot;font-size: 30px;&quot;&gt;サンプル政治団体&lt;/font&gt;" style="rounded=0;whiteSpace=wrap;html=1;align=left;fillColor=#CCCCCC;" parent="cFaB45KztUIKXS-_cTrr-14" vertex="1">
          <mxGeometry x="410" y="238" width="450" height="48" as="geometry" />
        </mxCell>
        <mxCell id="f6X1oh0iCQBrm1oztUXl-3" value="&lt;span style=&quot;font-size: 30px;&quot;&gt;報告年&lt;/span&gt;" style="rounded=0;whiteSpace=wrap;html=1;align=right;dashed=1;dashPattern=8 8;verticalAlign=bottom;" parent="cFaB45KztUIKXS-_cTrr-14" vertex="1">
          <mxGeometry x="80" y="308" width="310" height="46" as="geometry" />
        </mxCell>
        <mxCell id="f6X1oh0iCQBrm1oztUXl-4" value="&lt;font style=&quot;font-size: 30px;&quot;&gt;2022&lt;/font&gt;" style="rounded=0;whiteSpace=wrap;html=1;align=left;fillColor=#CCCCCC;" parent="cFaB45KztUIKXS-_cTrr-14" vertex="1">
          <mxGeometry x="410" y="306" width="450" height="48" as="geometry" />
        </mxCell>
        <mxCell id="f6X1oh0iCQBrm1oztUXl-5" value="&lt;span style=&quot;font-size: 30px;&quot;&gt;代表者名&lt;/span&gt;" style="rounded=0;whiteSpace=wrap;html=1;align=right;dashed=1;dashPattern=8 8;verticalAlign=bottom;" parent="cFaB45KztUIKXS-_cTrr-14" vertex="1">
          <mxGeometry x="80" y="378" width="310" height="46" as="geometry" />
        </mxCell>
        <mxCell id="f6X1oh0iCQBrm1oztUXl-6" value="&lt;font style=&quot;font-size: 30px;&quot;&gt;政治団体　三郎&lt;/font&gt;" style="rounded=0;whiteSpace=wrap;html=1;align=left;fillColor=#CCCCCC;" parent="cFaB45KztUIKXS-_cTrr-14" vertex="1">
          <mxGeometry x="410" y="376" width="450" height="48" as="geometry" />
        </mxCell>
        <mxCell id="f6X1oh0iCQBrm1oztUXl-7" value="&lt;span style=&quot;font-size: 30px;&quot;&gt;会計責任者名&lt;/span&gt;" style="rounded=0;whiteSpace=wrap;html=1;align=right;dashed=1;dashPattern=8 8;verticalAlign=bottom;" parent="cFaB45KztUIKXS-_cTrr-14" vertex="1">
          <mxGeometry x="80" y="448" width="310" height="46" as="geometry" />
        </mxCell>
        <mxCell id="f6X1oh0iCQBrm1oztUXl-8" value="&lt;font style=&quot;font-size: 30px;&quot;&gt;政治団体　花子&lt;/font&gt;" style="rounded=0;whiteSpace=wrap;html=1;align=left;fillColor=#CCCCCC;" parent="cFaB45KztUIKXS-_cTrr-14" vertex="1">
          <mxGeometry x="410" y="446" width="450" height="48" as="geometry" />
        </mxCell>
        <mxCell id="f6X1oh0iCQBrm1oztUXl-9" value="&lt;span style=&quot;font-size: 30px;&quot;&gt;政治団体区分&lt;/span&gt;" style="rounded=0;whiteSpace=wrap;html=1;align=right;dashed=1;dashPattern=8 8;verticalAlign=bottom;" parent="cFaB45KztUIKXS-_cTrr-14" vertex="1">
          <mxGeometry x="80" y="655" width="310" height="46" as="geometry" />
        </mxCell>
        <mxCell id="f6X1oh0iCQBrm1oztUXl-10" value="&lt;font style=&quot;font-size: 30px;&quot;&gt;▼その他の政治団体&lt;/font&gt;" style="rounded=0;whiteSpace=wrap;html=1;align=left;fillColor=#CCCCCC;" parent="cFaB45KztUIKXS-_cTrr-14" vertex="1">
          <mxGeometry x="410" y="653" width="450" height="48" as="geometry" />
        </mxCell>
        <mxCell id="gHv3RBwYPL7SlMYccCQ1-0" value="&lt;span style=&quot;font-size: 30px;&quot;&gt;政治資金管理団体の有無&lt;/span&gt;" style="rounded=0;whiteSpace=wrap;html=1;align=right;dashed=1;dashPattern=8 8;verticalAlign=bottom;" parent="cFaB45KztUIKXS-_cTrr-14" vertex="1">
          <mxGeometry x="50" y="716" width="340" height="46" as="geometry" />
        </mxCell>
        <mxCell id="gHv3RBwYPL7SlMYccCQ1-1" value="&lt;span style=&quot;font-size: 30px;&quot;&gt;☑有&lt;/span&gt;" style="rounded=0;whiteSpace=wrap;html=1;align=left;dashed=1;dashPattern=8 8;verticalAlign=bottom;fillColor=#CCCCCC;" parent="cFaB45KztUIKXS-_cTrr-14" vertex="1">
          <mxGeometry x="410" y="716" width="710" height="46" as="geometry" />
        </mxCell>
        <mxCell id="OxRL2sapqF7QnJSAGrnc-0" value="&lt;span style=&quot;font-size: 30px;&quot;&gt;主たる事務所の住所&lt;/span&gt;" style="rounded=0;whiteSpace=wrap;html=1;align=right;dashed=1;dashPattern=8 8;verticalAlign=bottom;" vertex="1" parent="cFaB45KztUIKXS-_cTrr-14">
          <mxGeometry x="80" y="517" width="310" height="46" as="geometry" />
        </mxCell>
        <mxCell id="OxRL2sapqF7QnJSAGrnc-1" value="&lt;font style=&quot;font-size: 30px;&quot;&gt;東京都千代田区霞が関xxxx番地zzzビルディングqqq号室&lt;/font&gt;" style="rounded=0;whiteSpace=wrap;html=1;align=left;fillColor=#CCCCCC;verticalAlign=top;" vertex="1" parent="cFaB45KztUIKXS-_cTrr-14">
          <mxGeometry x="410" y="515" width="670" height="115" as="geometry" />
        </mxCell>
      </root>
    </mxGraphModel>
  </diagram>
</mxfile>
